<svg width="1440" height="1024" viewBox="0 0 1440 1024" fill="none" xmlns="http://www.w3.org/2000/svg">
<rect width="1440" height="1024" fill="#F5F5F5"/>
<g filter="url(#filter0_d_2141_2572)">
<path d="M238.193 511.917C238.193 481.035 212.406 456 180.597 456C148.787 456 123 481.035 123 511.917C123 542.799 148.787 567.833 180.597 567.833C212.406 567.833 238.193 542.799 238.193 511.917Z" fill="url(#paint0_linear_2141_2572)"/>
</g>
<g filter="url(#filter1_d_2141_2572)">
<path d="M387.103 327C387.103 307.67 370.962 292 351.052 292C331.141 292 315 307.67 315 327C315 346.33 331.141 362 351.052 362C370.962 362 387.103 346.33 387.103 327Z" fill="url(#paint1_linear_2141_2572)"/>
</g>
<g filter="url(#filter2_d_2141_2572)">
<path d="M195 192.717C195 169.125 175.301 150 151 150C126.699 150 107 169.125 107 192.717C107 216.308 126.699 235.433 151 235.433C175.301 235.433 195 216.308 195 192.717Z" fill="url(#paint2_linear_2141_2572)"/>
</g>
<g filter="url(#filter3_d_2141_2572)">
<path d="M1079 345.581C1079 328.692 1064.9 315 1047.5 315C1030.1 315 1016 328.692 1016 345.581C1016 362.471 1030.1 376.162 1047.5 376.162C1064.9 376.162 1079 362.471 1079 345.581Z" fill="url(#paint3_linear_2141_2572)"/>
</g>
<g filter="url(#filter4_d_2141_2572)">
<path d="M1191.09 172.5C1191.09 144.057 1167.34 121 1138.05 121C1108.75 121 1085 144.057 1085 172.5C1085 200.943 1108.75 224 1138.05 224C1167.34 224 1191.09 200.943 1191.09 172.5Z" fill="url(#paint4_linear_2141_2572)"/>
</g>
<g filter="url(#filter5_d_2141_2572)">
<path d="M1302.55 469.5C1302.55 446.028 1282.95 427 1258.78 427C1234.6 427 1215 446.028 1215 469.5C1215 492.972 1234.6 512 1258.78 512C1282.95 512 1302.55 492.972 1302.55 469.5Z" fill="url(#paint5_linear_2141_2572)"/>
</g>
<g filter="url(#filter6_d_2141_2572)">
<path d="M1354 235.125C1354 219.04 1340.57 206 1324 206C1307.43 206 1294 219.04 1294 235.125C1294 251.21 1307.43 264.25 1324 264.25C1340.57 264.25 1354 251.21 1354 235.125Z" fill="url(#paint6_linear_2141_2572)"/>
</g>
<defs>
<filter id="filter0_d_2141_2572" x="82.6" y="419.6" width="195.993" height="192.633" filterUnits="userSpaceOnUse" color-interpolation-filters="sRGB">
<feFlood flood-opacity="0" result="BackgroundImageFix"/>
<feColorMatrix in="SourceAlpha" type="matrix" values="0 0 0 0 0 0 0 0 0 0 0 0 0 0 0 0 0 0 127 0" result="hardAlpha"/>
<feOffset dy="4"/>
<feGaussianBlur stdDeviation="20.2"/>
<feComposite in2="hardAlpha" operator="out"/>
<feColorMatrix type="matrix" values="0 0 0 0 0.235294 0 0 0 0 0.784314 0 0 0 0 0.745098 0 0 0 0.61 0"/>
<feBlend mode="normal" in2="BackgroundImageFix" result="effect1_dropShadow_2141_2572"/>
<feBlend mode="normal" in="SourceGraphic" in2="effect1_dropShadow_2141_2572" result="shape"/>
</filter>
<filter id="filter1_d_2141_2572" x="274.6" y="255.6" width="152.904" height="150.8" filterUnits="userSpaceOnUse" color-interpolation-filters="sRGB">
<feFlood flood-opacity="0" result="BackgroundImageFix"/>
<feColorMatrix in="SourceAlpha" type="matrix" values="0 0 0 0 0 0 0 0 0 0 0 0 0 0 0 0 0 0 127 0" result="hardAlpha"/>
<feOffset dy="4"/>
<feGaussianBlur stdDeviation="20.2"/>
<feComposite in2="hardAlpha" operator="out"/>
<feColorMatrix type="matrix" values="0 0 0 0 0.235294 0 0 0 0 0.784314 0 0 0 0 0.745098 0 0 0 0.61 0"/>
<feBlend mode="normal" in2="BackgroundImageFix" result="effect1_dropShadow_2141_2572"/>
<feBlend mode="normal" in="SourceGraphic" in2="effect1_dropShadow_2141_2572" result="shape"/>
</filter>
<filter id="filter2_d_2141_2572" x="66.6" y="113.6" width="168.8" height="166.233" filterUnits="userSpaceOnUse" color-interpolation-filters="sRGB">
<feFlood flood-opacity="0" result="BackgroundImageFix"/>
<feColorMatrix in="SourceAlpha" type="matrix" values="0 0 0 0 0 0 0 0 0 0 0 0 0 0 0 0 0 0 127 0" result="hardAlpha"/>
<feOffset dy="4"/>
<feGaussianBlur stdDeviation="20.2"/>
<feComposite in2="hardAlpha" operator="out"/>
<feColorMatrix type="matrix" values="0 0 0 0 0.235294 0 0 0 0 0.784314 0 0 0 0 0.745098 0 0 0 0.61 0"/>
<feBlend mode="normal" in2="BackgroundImageFix" result="effect1_dropShadow_2141_2572"/>
<feBlend mode="normal" in="SourceGraphic" in2="effect1_dropShadow_2141_2572" result="shape"/>
</filter>
<filter id="filter3_d_2141_2572" x="975.6" y="278.6" width="143.8" height="141.962" filterUnits="userSpaceOnUse" color-interpolation-filters="sRGB">
<feFlood flood-opacity="0" result="BackgroundImageFix"/>
<feColorMatrix in="SourceAlpha" type="matrix" values="0 0 0 0 0 0 0 0 0 0 0 0 0 0 0 0 0 0 127 0" result="hardAlpha"/>
<feOffset dy="4"/>
<feGaussianBlur stdDeviation="20.2"/>
<feComposite in2="hardAlpha" operator="out"/>
<feColorMatrix type="matrix" values="0 0 0 0 0.235294 0 0 0 0 0.784314 0 0 0 0 0.745098 0 0 0 0.61 0"/>
<feBlend mode="normal" in2="BackgroundImageFix" result="effect1_dropShadow_2141_2572"/>
<feBlend mode="normal" in="SourceGraphic" in2="effect1_dropShadow_2141_2572" result="shape"/>
</filter>
<filter id="filter4_d_2141_2572" x="1044.6" y="84.6" width="186.894" height="183.8" filterUnits="userSpaceOnUse" color-interpolation-filters="sRGB">
<feFlood flood-opacity="0" result="BackgroundImageFix"/>
<feColorMatrix in="SourceAlpha" type="matrix" values="0 0 0 0 0 0 0 0 0 0 0 0 0 0 0 0 0 0 127 0" result="hardAlpha"/>
<feOffset dy="4"/>
<feGaussianBlur stdDeviation="20.2"/>
<feComposite in2="hardAlpha" operator="out"/>
<feColorMatrix type="matrix" values="0 0 0 0 0.235294 0 0 0 0 0.784314 0 0 0 0 0.745098 0 0 0 0.61 0"/>
<feBlend mode="normal" in2="BackgroundImageFix" result="effect1_dropShadow_2141_2572"/>
<feBlend mode="normal" in="SourceGraphic" in2="effect1_dropShadow_2141_2572" result="shape"/>
</filter>
<filter id="filter5_d_2141_2572" x="1174.6" y="390.6" width="168.353" height="165.8" filterUnits="userSpaceOnUse" color-interpolation-filters="sRGB">
<feFlood flood-opacity="0" result="BackgroundImageFix"/>
<feColorMatrix in="SourceAlpha" type="matrix" values="0 0 0 0 0 0 0 0 0 0 0 0 0 0 0 0 0 0 127 0" result="hardAlpha"/>
<feOffset dy="4"/>
<feGaussianBlur stdDeviation="20.2"/>
<feComposite in2="hardAlpha" operator="out"/>
<feColorMatrix type="matrix" values="0 0 0 0 0.235294 0 0 0 0 0.784314 0 0 0 0 0.745098 0 0 0 0.61 0"/>
<feBlend mode="normal" in2="BackgroundImageFix" result="effect1_dropShadow_2141_2572"/>
<feBlend mode="normal" in="SourceGraphic" in2="effect1_dropShadow_2141_2572" result="shape"/>
</filter>
<filter id="filter6_d_2141_2572" x="1253.6" y="169.6" width="140.8" height="139.05" filterUnits="userSpaceOnUse" color-interpolation-filters="sRGB">
<feFlood flood-opacity="0" result="BackgroundImageFix"/>
<feColorMatrix in="SourceAlpha" type="matrix" values="0 0 0 0 0 0 0 0 0 0 0 0 0 0 0 0 0 0 127 0" result="hardAlpha"/>
<feOffset dy="4"/>
<feGaussianBlur stdDeviation="20.2"/>
<feComposite in2="hardAlpha" operator="out"/>
<feColorMatrix type="matrix" values="0 0 0 0 0.235294 0 0 0 0 0.784314 0 0 0 0 0.745098 0 0 0 0.61 0"/>
<feBlend mode="normal" in2="BackgroundImageFix" result="effect1_dropShadow_2141_2572"/>
<feBlend mode="normal" in="SourceGraphic" in2="effect1_dropShadow_2141_2572" result="shape"/>
</filter>
<linearGradient id="paint0_linear_2141_2572" x1="180.597" y1="456" x2="180.597" y2="567.833" gradientUnits="userSpaceOnUse">
<stop stop-color="#48CFCB"/>
<stop offset="1" stop-color="#229799"/>
</linearGradient>
<linearGradient id="paint1_linear_2141_2572" x1="351.052" y1="292" x2="351.052" y2="362" gradientUnits="userSpaceOnUse">
<stop stop-color="#48CFCB"/>
<stop offset="1" stop-color="#229799"/>
</linearGradient>
<linearGradient id="paint2_linear_2141_2572" x1="151" y1="150" x2="151" y2="235.433" gradientUnits="userSpaceOnUse">
<stop stop-color="#48CFCB"/>
<stop offset="1" stop-color="#229799"/>
</linearGradient>
<linearGradient id="paint3_linear_2141_2572" x1="1047.5" y1="315" x2="1047.5" y2="376.162" gradientUnits="userSpaceOnUse">
<stop stop-color="#48CFCB"/>
<stop offset="1" stop-color="#229799"/>
</linearGradient>
<linearGradient id="paint4_linear_2141_2572" x1="1138.05" y1="121" x2="1138.05" y2="224" gradientUnits="userSpaceOnUse">
<stop stop-color="#48CFCB"/>
<stop offset="1" stop-color="#229799"/>
</linearGradient>
<linearGradient id="paint5_linear_2141_2572" x1="1258.78" y1="427" x2="1258.78" y2="512" gradientUnits="userSpaceOnUse">
<stop stop-color="#48CFCB"/>
<stop offset="1" stop-color="#229799"/>
</linearGradient>
<linearGradient id="paint6_linear_2141_2572" x1="1324" y1="206" x2="1324" y2="264.25" gradientUnits="userSpaceOnUse">
<stop stop-color="#48CFCB"/>
<stop offset="1" stop-color="#229799"/>
</linearGradient>
</defs>
</svg>
