<svg width="1440" height="1024" viewBox="0 0 1440 1024" fill="none" xmlns="http://www.w3.org/2000/svg">
<g clip-path="url(#clip0_2141_2548)">
<rect width="1440" height="1024" fill="#F5F5F5"/>
<g filter="url(#filter0_d_2141_2548)">
<path d="M120.18 699.075C120.18 662.03 89.2476 632 51.0901 632C12.9327 632 -18 662.03 -18 699.075C-18 736.119 12.9327 766.15 51.0901 766.15C89.2476 766.15 120.18 736.119 120.18 699.075Z" fill="url(#paint0_linear_2141_2548)"/>
</g>
<g filter="url(#filter1_d_2141_2548)">
<path d="M297.491 543.984C297.491 520.797 278.13 502 254.246 502C230.362 502 211 520.797 211 543.984C211 567.172 230.362 585.969 254.246 585.969C278.13 585.969 297.491 567.172 297.491 543.984Z" fill="url(#paint1_linear_2141_2548)"/>
</g>
<g filter="url(#filter2_d_2141_2548)">
<path d="M77.5606 249.028C77.5606 220.728 53.9301 197.787 24.7803 197.787C-4.36945 197.787 -28 220.728 -28 249.028C-28 277.327 -4.36945 300.269 24.7803 300.269C53.9301 300.269 77.5606 277.327 77.5606 249.028Z" fill="url(#paint2_linear_2141_2548)"/>
</g>
<g filter="url(#filter3_d_2141_2548)">
<path d="M1122.57 735.684C1122.57 715.424 1105.65 699 1084.79 699C1063.92 699 1047 715.424 1047 735.684C1047 755.944 1063.92 772.368 1084.79 772.368C1105.65 772.368 1122.57 755.944 1122.57 735.684Z" fill="url(#paint3_linear_2141_2548)"/>
</g>
<g filter="url(#filter4_d_2141_2548)">
<path d="M1139.27 224.777C1139.27 190.658 1110.78 163 1075.63 163C1040.49 163 1012 190.658 1012 224.777C1012 258.895 1040.49 286.554 1075.63 286.554C1110.78 286.554 1139.27 258.895 1139.27 224.777Z" fill="url(#paint4_linear_2141_2548)"/>
</g>
<g filter="url(#filter5_d_2141_2548)">
<path d="M1354.03 573.981C1354.03 545.825 1330.51 523 1301.51 523C1272.51 523 1249 545.825 1249 573.981C1249 602.137 1272.51 624.962 1301.51 624.962C1330.51 624.962 1354.03 602.137 1354.03 573.981Z" fill="url(#paint5_linear_2141_2548)"/>
</g>
<g filter="url(#filter6_d_2141_2548)">
<path d="M1425.97 299.937C1425.97 280.642 1409.86 265 1389.99 265C1370.11 265 1354 280.642 1354 299.937C1354 319.232 1370.11 334.874 1389.99 334.874C1409.86 334.874 1425.97 319.232 1425.97 299.937Z" fill="url(#paint6_linear_2141_2548)"/>
</g>
</g>
<defs>
<filter id="filter0_d_2141_2548" x="-58.4" y="595.6" width="218.98" height="214.95" filterUnits="userSpaceOnUse" color-interpolation-filters="sRGB">
<feFlood flood-opacity="0" result="BackgroundImageFix"/>
<feColorMatrix in="SourceAlpha" type="matrix" values="0 0 0 0 0 0 0 0 0 0 0 0 0 0 0 0 0 0 127 0" result="hardAlpha"/>
<feOffset dy="4"/>
<feGaussianBlur stdDeviation="20.2"/>
<feComposite in2="hardAlpha" operator="out"/>
<feColorMatrix type="matrix" values="0 0 0 0 0.235294 0 0 0 0 0.784314 0 0 0 0 0.745098 0 0 0 0.61 0"/>
<feBlend mode="normal" in2="BackgroundImageFix" result="effect1_dropShadow_2141_2548"/>
<feBlend mode="normal" in="SourceGraphic" in2="effect1_dropShadow_2141_2548" result="shape"/>
</filter>
<filter id="filter1_d_2141_2548" x="170.6" y="465.6" width="167.292" height="164.769" filterUnits="userSpaceOnUse" color-interpolation-filters="sRGB">
<feFlood flood-opacity="0" result="BackgroundImageFix"/>
<feColorMatrix in="SourceAlpha" type="matrix" values="0 0 0 0 0 0 0 0 0 0 0 0 0 0 0 0 0 0 127 0" result="hardAlpha"/>
<feOffset dy="4"/>
<feGaussianBlur stdDeviation="20.2"/>
<feComposite in2="hardAlpha" operator="out"/>
<feColorMatrix type="matrix" values="0 0 0 0 0.235294 0 0 0 0 0.784314 0 0 0 0 0.745098 0 0 0 0.61 0"/>
<feBlend mode="normal" in2="BackgroundImageFix" result="effect1_dropShadow_2141_2548"/>
<feBlend mode="normal" in="SourceGraphic" in2="effect1_dropShadow_2141_2548" result="shape"/>
</filter>
<filter id="filter2_d_2141_2548" x="-68.4" y="161.387" width="186.361" height="183.282" filterUnits="userSpaceOnUse" color-interpolation-filters="sRGB">
<feFlood flood-opacity="0" result="BackgroundImageFix"/>
<feColorMatrix in="SourceAlpha" type="matrix" values="0 0 0 0 0 0 0 0 0 0 0 0 0 0 0 0 0 0 127 0" result="hardAlpha"/>
<feOffset dy="4"/>
<feGaussianBlur stdDeviation="20.2"/>
<feComposite in2="hardAlpha" operator="out"/>
<feColorMatrix type="matrix" values="0 0 0 0 0.235294 0 0 0 0 0.784314 0 0 0 0 0.745098 0 0 0 0.61 0"/>
<feBlend mode="normal" in2="BackgroundImageFix" result="effect1_dropShadow_2141_2548"/>
<feBlend mode="normal" in="SourceGraphic" in2="effect1_dropShadow_2141_2548" result="shape"/>
</filter>
<filter id="filter3_d_2141_2548" x="1006.6" y="662.6" width="156.372" height="154.168" filterUnits="userSpaceOnUse" color-interpolation-filters="sRGB">
<feFlood flood-opacity="0" result="BackgroundImageFix"/>
<feColorMatrix in="SourceAlpha" type="matrix" values="0 0 0 0 0 0 0 0 0 0 0 0 0 0 0 0 0 0 127 0" result="hardAlpha"/>
<feOffset dy="4"/>
<feGaussianBlur stdDeviation="20.2"/>
<feComposite in2="hardAlpha" operator="out"/>
<feColorMatrix type="matrix" values="0 0 0 0 0.235294 0 0 0 0 0.784314 0 0 0 0 0.745098 0 0 0 0.61 0"/>
<feBlend mode="normal" in2="BackgroundImageFix" result="effect1_dropShadow_2141_2548"/>
<feBlend mode="normal" in="SourceGraphic" in2="effect1_dropShadow_2141_2548" result="shape"/>
</filter>
<filter id="filter4_d_2141_2548" x="971.6" y="126.6" width="208.066" height="204.354" filterUnits="userSpaceOnUse" color-interpolation-filters="sRGB">
<feFlood flood-opacity="0" result="BackgroundImageFix"/>
<feColorMatrix in="SourceAlpha" type="matrix" values="0 0 0 0 0 0 0 0 0 0 0 0 0 0 0 0 0 0 127 0" result="hardAlpha"/>
<feOffset dy="4"/>
<feGaussianBlur stdDeviation="20.2"/>
<feComposite in2="hardAlpha" operator="out"/>
<feColorMatrix type="matrix" values="0 0 0 0 0.235294 0 0 0 0 0.784314 0 0 0 0 0.745098 0 0 0 0.61 0"/>
<feBlend mode="normal" in2="BackgroundImageFix" result="effect1_dropShadow_2141_2548"/>
<feBlend mode="normal" in="SourceGraphic" in2="effect1_dropShadow_2141_2548" result="shape"/>
</filter>
<filter id="filter5_d_2141_2548" x="1208.6" y="486.6" width="185.825" height="182.762" filterUnits="userSpaceOnUse" color-interpolation-filters="sRGB">
<feFlood flood-opacity="0" result="BackgroundImageFix"/>
<feColorMatrix in="SourceAlpha" type="matrix" values="0 0 0 0 0 0 0 0 0 0 0 0 0 0 0 0 0 0 127 0" result="hardAlpha"/>
<feOffset dy="4"/>
<feGaussianBlur stdDeviation="20.2"/>
<feComposite in2="hardAlpha" operator="out"/>
<feColorMatrix type="matrix" values="0 0 0 0 0.235294 0 0 0 0 0.784314 0 0 0 0 0.745098 0 0 0 0.61 0"/>
<feBlend mode="normal" in2="BackgroundImageFix" result="effect1_dropShadow_2141_2548"/>
<feBlend mode="normal" in="SourceGraphic" in2="effect1_dropShadow_2141_2548" result="shape"/>
</filter>
<filter id="filter6_d_2141_2548" x="1313.6" y="228.6" width="152.773" height="150.674" filterUnits="userSpaceOnUse" color-interpolation-filters="sRGB">
<feFlood flood-opacity="0" result="BackgroundImageFix"/>
<feColorMatrix in="SourceAlpha" type="matrix" values="0 0 0 0 0 0 0 0 0 0 0 0 0 0 0 0 0 0 127 0" result="hardAlpha"/>
<feOffset dy="4"/>
<feGaussianBlur stdDeviation="20.2"/>
<feComposite in2="hardAlpha" operator="out"/>
<feColorMatrix type="matrix" values="0 0 0 0 0.235294 0 0 0 0 0.784314 0 0 0 0 0.745098 0 0 0 0.61 0"/>
<feBlend mode="normal" in2="BackgroundImageFix" result="effect1_dropShadow_2141_2548"/>
<feBlend mode="normal" in="SourceGraphic" in2="effect1_dropShadow_2141_2548" result="shape"/>
</filter>
<linearGradient id="paint0_linear_2141_2548" x1="51.0901" y1="632" x2="51.0901" y2="766.15" gradientUnits="userSpaceOnUse">
<stop stop-color="#48CFCB"/>
<stop offset="1" stop-color="#229799"/>
</linearGradient>
<linearGradient id="paint1_linear_2141_2548" x1="254.246" y1="502" x2="254.246" y2="585.969" gradientUnits="userSpaceOnUse">
<stop stop-color="#48CFCB"/>
<stop offset="1" stop-color="#229799"/>
</linearGradient>
<linearGradient id="paint2_linear_2141_2548" x1="24.7803" y1="197.787" x2="24.7803" y2="300.269" gradientUnits="userSpaceOnUse">
<stop stop-color="#48CFCB"/>
<stop offset="1" stop-color="#229799"/>
</linearGradient>
<linearGradient id="paint3_linear_2141_2548" x1="1084.79" y1="699" x2="1084.79" y2="772.368" gradientUnits="userSpaceOnUse">
<stop stop-color="#48CFCB"/>
<stop offset="1" stop-color="#229799"/>
</linearGradient>
<linearGradient id="paint4_linear_2141_2548" x1="1075.63" y1="163" x2="1075.63" y2="286.554" gradientUnits="userSpaceOnUse">
<stop stop-color="#48CFCB"/>
<stop offset="1" stop-color="#229799"/>
</linearGradient>
<linearGradient id="paint5_linear_2141_2548" x1="1301.51" y1="523" x2="1301.51" y2="624.962" gradientUnits="userSpaceOnUse">
<stop stop-color="#48CFCB"/>
<stop offset="1" stop-color="#229799"/>
</linearGradient>
<linearGradient id="paint6_linear_2141_2548" x1="1389.99" y1="265" x2="1389.99" y2="334.874" gradientUnits="userSpaceOnUse">
<stop stop-color="#48CFCB"/>
<stop offset="1" stop-color="#229799"/>
</linearGradient>
<clipPath id="clip0_2141_2548">
<rect width="1440" height="1024" fill="white"/>
</clipPath>
</defs>
</svg>
